<?xml version="1.0" encoding="UTF-8" standalone="no"?>
<svg
   width="354.76424913998494"
   height="43.36570029598368"
   viewBox="0 0 354.76424913998494 43.36570029598368"
   class="css-1j8o68f"
   version="1.1"
   id="svg170"
   sodipodi:docname="logo.svg"
   inkscape:version="1.1 (c68e22c387, 2021-05-23)"
   xmlns:inkscape="http://www.inkscape.org/namespaces/inkscape"
   xmlns:sodipodi="http://sodipodi.sourceforge.net/DTD/sodipodi-0.dtd"
   xmlns="http://www.w3.org/2000/svg"
   xmlns:svg="http://www.w3.org/2000/svg">
  <sodipodi:namedview
     id="namedview172"
     pagecolor="#ffffff"
     bordercolor="#666666"
     borderopacity="1.0"
     inkscape:pageshadow="2"
     inkscape:pageopacity="0.0"
     inkscape:pagecheckerboard="0"
     showgrid="false"
     inkscape:zoom="2.9822621"
     inkscape:cx="177.38213"
     inkscape:cy="21.627877"
     inkscape:window-width="5120"
     inkscape:window-height="1377"
     inkscape:window-x="1072"
     inkscape:window-y="694"
     inkscape:window-maximized="1"
     inkscape:current-layer="svg170" />
  <defs
     id="SvgjsDefs1442" />
  <g
     id="SvgjsG1443"
     featurekey="5TMTKC-0"
     transform="matrix(0.6442395676221598,0,0,0.6442395676221598,-11.193662487435027,-9.784066490423424)"
     fill="#c8e7ed">
    <g
       display="none"
       id="g115">
      <rect
         display="inline"
         fill="#c8e7ed"
         width="100"
         height="100"
         id="rect3" />
      <rect
         x="-100"
         y="100"
         display="inline"
         fill="#c8e7ed"
         width="100"
         height="100"
         id="rect5" />
      <g
         display="inline"
         id="g17">
        <circle
           fill="#c8e7ed"
           cx="-50"
           cy="-50"
           r="50"
           id="circle7" />
        <circle
           fill="#c8e7ed"
           cx="50.333"
           cy="-50"
           r="50"
           id="circle9" />
        <circle
           fill="#c8e7ed"
           cx="150"
           cy="-50"
           r="50"
           id="circle11" />
        <circle
           fill="#c8e7ed"
           cx="-50"
           cy="50"
           r="50"
           id="circle13" />
        <circle
           fill="#c8e7ed"
           cx="50"
           cy="50"
           r="50"
           id="circle15" />
      </g>
      <g
         display="inline"
         id="g25">
        <circle
           fill="#c8e7ed"
           cx="-50"
           cy="150"
           r="50"
           id="circle19" />
        <circle
           fill="#c8e7ed"
           cx="50.333"
           cy="150"
           r="50"
           id="circle21" />
        <circle
           fill="#c8e7ed"
           cx="150"
           cy="150"
           r="50"
           id="circle23" />
      </g>
      <g
         display="inline"
         opacity="0.05"
         id="g113">
        <g
           id="g51">
          <g
             id="g33">
            <g
               id="g31">
              <line
                 fill="none"
                 stroke="#c8e7ed"
                 stroke-width="0.5"
                 stroke-miterlimit="10"
                 x1="100"
                 y1="-100"
                 x2="200"
                 y2="0"
                 id="line27" />
              <line
                 fill="none"
                 stroke="#c8e7ed"
                 stroke-width="0.5"
                 stroke-miterlimit="10"
                 x1="200"
                 y1="-100"
                 x2="100"
                 y2="0"
                 id="line29" />
            </g>
          </g>
          <g
             id="g41">
            <g
               id="g39">
              <line
                 fill="none"
                 stroke="#c8e7ed"
                 stroke-width="0.5"
                 stroke-miterlimit="10"
                 x1="0"
                 y1="-100"
                 x2="100"
                 y2="0"
                 id="line35" />
              <line
                 fill="none"
                 stroke="#c8e7ed"
                 stroke-width="0.5"
                 stroke-miterlimit="10"
                 x1="100"
                 y1="-100"
                 x2="0"
                 y2="0"
                 id="line37" />
            </g>
          </g>
          <g
             id="g49">
            <g
               id="g47">
              <line
                 fill="none"
                 stroke="#c8e7ed"
                 stroke-width="0.5"
                 stroke-miterlimit="10"
                 x1="-100"
                 y1="-100"
                 x2="0"
                 y2="0"
                 id="line43" />
              <line
                 fill="none"
                 stroke="#c8e7ed"
                 stroke-width="0.5"
                 stroke-miterlimit="10"
                 x1="0"
                 y1="-100"
                 x2="-100"
                 y2="0"
                 id="line45" />
            </g>
          </g>
        </g>
        <g
           id="g85">
          <g
             id="g59">
            <g
               id="g57">
              <line
                 fill="none"
                 stroke="#c8e7ed"
                 stroke-width="0.5"
                 stroke-miterlimit="10"
                 x1="100"
                 y1="0"
                 x2="200"
                 y2="100"
                 id="line53" />
              <line
                 fill="none"
                 stroke="#c8e7ed"
                 stroke-width="0.5"
                 stroke-miterlimit="10"
                 x1="200"
                 y1="0"
                 x2="100"
                 y2="100"
                 id="line55" />
            </g>
          </g>
          <g
             id="g75">
            <g
               id="g73">
              <line
                 fill="none"
                 stroke="#c8e7ed"
                 stroke-width="0.5"
                 stroke-miterlimit="10"
                 x1="0"
                 y1="0"
                 x2="100"
                 y2="100"
                 id="line61" />
              <line
                 fill="none"
                 stroke="#c8e7ed"
                 stroke-miterlimit="10"
                 x1="49.5"
                 y1="15"
                 x2="49.5"
                 y2="87"
                 id="line63" />
              <line
                 fill="none"
                 stroke="#c8e7ed"
                 stroke-miterlimit="10"
                 x1="86"
                 y1="50.5"
                 x2="14"
                 y2="50.5"
                 id="line65" />
              <line
                 fill="none"
                 stroke="#c8e7ed"
                 stroke-width="0.5"
                 stroke-miterlimit="10"
                 x1="100"
                 y1="0"
                 x2="0"
                 y2="100"
                 id="line67" />
              <g
                 id="g71">
                <path
                   d="M85,15v71H14V15H85 M85.5,14.5H85H14h-0.5V15v71v0.5H14h71h0.5V86V15V14.5L85.5,14.5z"
                   id="path69" />
              </g>
            </g>
          </g>
          <g
             id="g83">
            <g
               id="g81">
              <line
                 fill="none"
                 stroke="#c8e7ed"
                 stroke-width="0.5"
                 stroke-miterlimit="10"
                 x1="-100"
                 y1="0"
                 x2="0"
                 y2="100"
                 id="line77" />
              <line
                 fill="none"
                 stroke="#c8e7ed"
                 stroke-width="0.5"
                 stroke-miterlimit="10"
                 x1="0"
                 y1="0"
                 x2="-100"
                 y2="100"
                 id="line79" />
            </g>
          </g>
        </g>
        <g
           id="g111">
          <g
             id="g93">
            <g
               id="g91">
              <line
                 fill="none"
                 stroke="#c8e7ed"
                 stroke-width="0.5"
                 stroke-miterlimit="10"
                 x1="100"
                 y1="100"
                 x2="200"
                 y2="200"
                 id="line87" />
              <line
                 fill="none"
                 stroke="#c8e7ed"
                 stroke-width="0.5"
                 stroke-miterlimit="10"
                 x1="200"
                 y1="100"
                 x2="100"
                 y2="200"
                 id="line89" />
            </g>
          </g>
          <g
             id="g101">
            <g
               id="g99">
              <line
                 fill="none"
                 stroke="#c8e7ed"
                 stroke-width="0.5"
                 stroke-miterlimit="10"
                 x1="0"
                 y1="100"
                 x2="100"
                 y2="200"
                 id="line95" />
              <line
                 fill="none"
                 stroke="#c8e7ed"
                 stroke-width="0.5"
                 stroke-miterlimit="10"
                 x1="100"
                 y1="100"
                 x2="0"
                 y2="200"
                 id="line97" />
            </g>
          </g>
          <g
             id="g109">
            <g
               id="g107">
              <line
                 fill="none"
                 stroke="#c8e7ed"
                 stroke-width="0.5"
                 stroke-miterlimit="10"
                 x1="-100"
                 y1="100"
                 x2="0"
                 y2="200"
                 id="line103" />
              <line
                 fill="none"
                 stroke="#c8e7ed"
                 stroke-width="0.5"
                 stroke-miterlimit="10"
                 x1="0"
                 y1="100"
                 x2="-100"
                 y2="200"
                 id="line105" />
            </g>
          </g>
        </g>
      </g>
    </g>
    <g
       id="g161">
      <g
         id="g119">
        <path
           d="M57.712,70.215H42.03c-0.828,0-1.5-0.672-1.5-1.5v-1.113c0-2.39-1.513-4.818-3.113-7.389    c-2.127-3.414-4.536-7.282-4.536-12.396c0-9.296,7.563-16.859,16.858-16.859s16.859,7.563,16.859,16.859    c0,4.357-2.1,7.982-4.13,11.489c-1.676,2.896-3.257,5.629-3.257,8.296v1.113C59.212,69.543,58.54,70.215,57.712,70.215z     M43.521,67.215h12.697c0.126-3.315,1.841-6.278,3.651-9.409c1.834-3.167,3.729-6.438,3.729-9.989    c0-7.642-6.218-13.859-13.859-13.859s-13.858,6.218-13.858,13.859c0,4.257,2.075,7.588,4.082,10.81    C41.646,61.33,43.386,64.122,43.521,67.215z"
           id="path117" />
      </g>
      <g
         id="g123">
        <path
           d="M56.599,76.5H43.145c-0.828,0-1.5-0.672-1.5-1.5s0.672-1.5,1.5-1.5h13.454c0.828,0,1.5,0.672,1.5,1.5    S57.427,76.5,56.599,76.5z"
           id="path121" />
      </g>
      <g
         id="g127">
        <path
           d="M53.961,82.5h-8.179c-0.828,0-1.5-0.672-1.5-1.5s0.672-1.5,1.5-1.5h8.179c0.828,0,1.5,0.672,1.5,1.5    S54.789,82.5,53.961,82.5z"
           id="path125" />
      </g>
      <g
         id="g131">
        <path
           d="M49.739,25.706c-0.828,0-1.5-0.672-1.5-1.5v-7.519c0-0.828,0.672-1.5,1.5-1.5s1.5,0.672,1.5,1.5v7.519    C51.239,25.034,50.567,25.706,49.739,25.706z"
           id="path129" />
      </g>
      <g
         id="g135">
        <path
           d="M66.755,32.301c-0.384,0-0.768-0.146-1.061-0.439c-0.586-0.586-0.586-1.535,0-2.121l5.54-5.539    c0.586-0.586,1.535-0.586,2.121,0s0.586,1.535,0,2.121l-5.54,5.539C67.522,32.154,67.139,32.301,66.755,32.301z"
           id="path133" />
      </g>
      <g
         id="g139">
        <path
           d="M27.448,71.871c-0.372,0-0.745-0.138-1.036-0.415c-0.599-0.572-0.621-1.521-0.049-2.121l5.54-5.804    c0.573-0.598,1.521-0.621,2.121-0.049c0.599,0.572,0.621,1.521,0.049,2.121l-5.54,5.804    C28.238,71.716,27.844,71.871,27.448,71.871z"
           id="path137" />
      </g>
      <g
         id="g143">
        <path
           d="M81,49.316h-7.255c-0.828,0-1.5-0.672-1.5-1.5s0.672-1.5,1.5-1.5H81c0.828,0,1.5,0.672,1.5,1.5S81.828,49.316,81,49.316z"
           id="path141" />
      </g>
      <g
         id="g147">
        <path
           d="M25.998,49.316h-7.123c-0.828,0-1.5-0.672-1.5-1.5s0.672-1.5,1.5-1.5h7.123c0.828,0,1.5,0.672,1.5,1.5    S26.826,49.316,25.998,49.316z"
           id="path145" />
      </g>
      <g
         id="g151">
        <path
           d="M32.856,32.434c-0.384,0-0.768-0.146-1.061-0.439l-5.276-5.276c-0.586-0.586-0.586-1.535,0-2.121s1.535-0.586,2.121,0    l5.276,5.276c0.586,0.586,0.586,1.535,0,2.121C33.624,32.287,33.24,32.434,32.856,32.434z"
           id="path149" />
      </g>
      <g
         id="g155">
        <path
           d="M72.163,71.476c-0.384,0-0.768-0.146-1.061-0.439l-5.276-5.276c-0.586-0.586-0.586-1.535,0-2.121s1.535-0.586,2.121,0    l5.276,5.276c0.586,0.586,0.586,1.535,0,2.121C72.931,71.329,72.547,71.476,72.163,71.476z"
           id="path153" />
      </g>
      <g
         id="g159">
        <path
           d="M43.556,55.327c-0.384,0-0.768-0.146-1.061-0.439c-3.998-3.999-3.998-10.506,0-14.505c4.001-3.998,10.507-3.997,14.504,0    c0.586,0.586,0.586,1.535,0,2.121s-1.535,0.586-2.121,0c-2.828-2.828-7.432-2.828-10.262,0c-2.828,2.829-2.828,7.434,0,10.263    c0.586,0.586,0.586,1.536,0,2.121C44.323,55.181,43.939,55.327,43.556,55.327z"
           id="path157" />
      </g>
    </g>
  </g>
  <g
     id="SvgjsG1444"
     featurekey="nameLeftFeature-0"
     transform="matrix(1.165447304245842,0,0,1.165447304245842,60.95109787076161,6.2404043016255235)"
     fill="#ffffc2">
    <path
       d="M12.96 18.5 c-1.24 1.12 -2.9 1.7 -4.76 1.7 c-3.92 0 -7.3 -2.94 -7.3 -7.2 s3.38 -7.2 7.3 -7.2 c1.84 0 3.48 0.6 4.68 1.66 l-1.76 1.98 c-0.74 -0.52 -1.74 -0.9 -2.76 -0.9 c-2.52 0 -4.42 1.86 -4.42 4.46 s1.9 4.46 4.42 4.46 c1.06 0 2.1 -0.4 2.86 -1 z M25.880000000000003 20 l-3.1 0 l-2.98 -4.66 l-0.04 0 l-1.98 0 l0 4.66 l-2.92 0 l0 -14 l4.9 0 c3.14 0 5.18 1.9 5.18 4.76 c0 1.9 -0.92 3.32 -2.48 4.04 z M17.78 8.68 l0 4.14 l1.8 0 c1.44 0 2.44 -0.56 2.44 -2.06 c0 -1.48 -1 -2.08 -2.44 -2.08 l-1.8 0 z M30.6 17.32 l5.92 0 l0 2.68 l-6.32 0 l-2.52 0 l0 -14 l2.92 0 l5.74 0 l0 2.68 l-5.74 0 l0 2.96 l4.34 0 l0 2.64 l-4.34 0 l0 3.04 z M49.400000000000006 20 l-1.06 -2.5 l-6.76 0 l-1.06 2.5 l-3.1 0 l6.22 -14 l2.64 0 l6.24 14 l-3.12 0 z M42.6 15.120000000000001 l4.72 0 l-2.36 -5.54 z M63.620000000000005 6 l0 2.68 l-3.48 0 l0 11.32 l-2.92 0 l0 -11.32 l-3.5 0 l0 -2.68 l9.9 0 z M68.54 17.32 l5.92 0 l0 2.68 l-6.32 0 l-2.52 0 l0 -14 l2.92 0 l5.74 0 l0 2.68 l-5.74 0 l0 2.96 l4.34 0 l0 2.64 l-4.34 0 l0 3.04 z M81.56 6 c3.98 0 7.1 3.12 7.1 6.92 c0 3.96 -3.12 7.08 -7.1 7.08 l-5 0 l0 -14 l5 0 z M81.53999999999999 17.240000000000002 c2.68 0 4.12 -1.94 4.12 -4.32 c0 -2.22 -1.44 -4.16 -4.12 -4.16 l-2.06 0 l0 8.48 l2.06 0 z"
       id="path164" />
  </g>
  <g
     id="SvgjsG1445"
     featurekey="nameRightFeature-0"
     transform="matrix(1.1574097820930513,0,0,1.1574097820930513,176.01387128938677,6.287023043101906)"
     fill="#ffffc2">
    <path
       d="M13.96 5.800000000000001 c3.44 0 7.08 2.98 7.08 7.2 s-3.64 7.2 -7.08 7.2 s-7.06 -2.98 -7.06 -7.2 s3.62 -7.2 7.06 -7.2 z M13.96 19.6 c3.1 0 6.5 -2.68 6.5 -6.6 s-3.4 -6.6 -6.5 -6.6 c-3.08 0 -6.48 2.68 -6.48 6.6 s3.4 6.6 6.48 6.6 z M32.14 6 l0.58 0 l0 8.92 c0 3.48 -2.04 5.38 -4.8 5.38 c-2.74 0 -4.78 -1.9 -4.78 -5.38 l0 -8.92 l0.58 0 l0 8.9 c0 3.1 1.74 4.8 4.2 4.8 c2.48 0 4.22 -1.7 4.22 -4.8 l0 -8.9 z M43.760000000000005 6 l0 0.58 l-4.22 0 l0 13.42 l-0.58 0 l0 -13.42 l-4.24 0 l0 -0.58 l9.04 0 z M58.52 5.800000000000001 c3.44 0 7.08 2.98 7.08 7.2 s-3.64 7.2 -7.08 7.2 s-7.06 -2.98 -7.06 -7.2 s3.62 -7.2 7.06 -7.2 z M58.52 19.6 c3.1 0 6.5 -2.68 6.5 -6.6 s-3.4 -6.6 -6.5 -6.6 c-3.08 0 -6.48 2.68 -6.48 6.6 s3.4 6.6 6.48 6.6 z M75.46000000000001 6.52 l-7.18 0 l0 6.18 l5.94 0 l0 0.5 l-5.94 0 l0 6.8 l-0.58 0 l0 -14 l7.76 0 l0 0.52 z M92 6 l0 0.58 l-4.22 0 l0 13.42 l-0.58 0 l0 -13.42 l-4.24 0 l0 -0.58 l9.04 0 z M102.96 6 l0.58 0 l0 14 l-0.58 0 l0 -6.52 l-8.38 0 l0 6.52 l-0.58 0 l0 -14 l0.58 0 l0 6.9 l8.38 0 l0 -6.9 z M106.52 6 l0 14 l-0.58 0 l0 -14 l0.58 0 z M119.18 6 l0.58 0 l0 14 l-0.44 0 l-9.82 -12.9 l0 12.9 l-0.58 0 l0 -14 l0.44 0 l9.82 12.94 l0 -12.94 z M139.57999999999998 20 l-1.78 -3.98 l-8.04 0 l-1.78 3.98 l-0.62 0 l6.26 -14 l0.3 0 l6.28 14 l-0.62 0 z M130 15.46 l7.56 0 l-3.78 -8.46 z M142.38 6 l0 14 l-0.58 0 l0 -14 l0.58 0 z M154.44 20 l-0.72 0 l-4.08 -5.38 c-0.2 0.02 -0.4 0.02 -0.6 0.02 l-3.68 0 l0 5.36 l-0.58 0 l0 -14 l4.26 0 c3.14 0 4.8 1.94 4.8 4.3 c0 2.08 -1.22 3.8 -3.56 4.24 z M145.35999999999999 14.04 l3.76 0 c2.52 0 4.14 -1.46 4.14 -3.74 c0 -2.32 -1.62 -3.72 -4.14 -3.72 l-3.76 0 l0 7.46 z"
       id="path167" />
  </g>
</svg>
